<?xml version="1.0" encoding="UTF-8"?>
<svg id="Camada_2" data-name="Camada 2" xmlns="http://www.w3.org/2000/svg" viewBox="0 0 57.34 67.13">
  <defs>
    <style>
      .cls-1 {
        fill: #ffb600;
        stroke-width: 0px;
      }
    </style>
  </defs>
  <rect width="57.34" height="67.13" fill="#131210"/>
  <g id="Layer_2" data-name="Layer 2">
    <path class="cls-1" d="M57.34,33.51c0,1.21-.39,2.09-.56,2.42-.39.78-.96,1.45-1.69,1.95l-14.73,9.47c-.1.06-.22.03-.28-.07l-.48-.8c-1.43-2.38-.74-5.52,1.54-6.97l8.4-5.37c.39-.25.38-.85-.02-1.09l-13.44-7.87c-.65-.38-1.46.12-1.46.91v21.41c0,1.99-1.09,3.84-2.78,4.71l-10.25,5.25c-1.72.88-3.75.64-5.27-.67-1.17-1.02-1.79-2.59-1.79-4.19V12.54c0-.57-.3-1.09-.78-1.35l-6.92-3.72c-.42-.23-.92.1-.92.6v50.43c0,.65.66,1.04,1.18.71l4.29-2.75c.56-.36,1.27.06,1.29.75l.04,1.62c.07,2.49-1.12,4.83-3.12,6.14l-2.25,1.47c-.66.43-1.41.69-2.19.7C2.14,67.2,0,64.71,0,61.89V5.39C0,3.75.64,2.16,1.85,1.15,3.39-.15,5.43-.35,7.14.57l10.62,5.71c1.66.89,2.71,2.71,2.71,4.69v39.57c0,.23.22.38.42.28l7.13-3.65c.41-.21.67-.65.67-1.13v-23.34c0-1.97.94-3.85,2.57-4.79,1.48-.86,3.24-.86,4.73.02l18.81,11.02c.39.23,1.21.78,1.82,1.84.62,1.07.71,2.13.71,2.72Z"/>
  </g>
</svg>
