<svg width="336" height="68" viewBox="0 0 336 68" fill="none" xmlns="http://www.w3.org/2000/svg">
<path d="M83.29 53.5577L73 18.6077H79.7L83.91 34.4377C85.06 38.6777 86.14 42.9277 86.93 47.1577H87.05C87.84 42.9777 88.96 38.6477 90.12 34.4577L94.54 18.5977H101.1L90.23 53.5577H83.29Z" fill="black"/>
<path d="M107.09 42.6181C107.23 47.5181 110.49 49.3781 114.24 49.3781C116.85 49.3781 118.79 48.9281 120.48 48.2881L121.38 52.5581C119.39 53.4181 116.57 54.0381 113.31 54.0381C105.62 54.0381 101.21 49.0781 101.21 41.3181C101.21 33.5581 105.37 27.7881 112.67 27.7881C119.97 27.7881 122.68 33.9481 122.68 39.8581C122.68 41.1181 122.59 42.0381 122.48 42.6181H107.1H107.09ZM116.93 38.3181C116.96 35.4681 115.85 32.0681 112.27 32.0681C108.69 32.0681 107.33 35.6181 107.1 38.3181H116.93Z" fill="black"/>
<path d="M133.92 21.3781C133.93 23.2881 132.58 24.748 130.45 24.748C128.49 24.748 127.12 23.2881 127.14 21.3781C127.13 19.4281 128.54 17.998 130.53 17.998C132.52 17.998 133.9 19.4181 133.92 21.3781ZM127.47 53.5581V28.3081H133.6V53.5581H127.47Z" fill="black"/>
<path d="M156.92 52.8676C155.76 53.4276 153.43 54.0276 150.66 54.0276C143.32 54.0276 138.55 49.1376 138.55 41.1676C138.55 33.6076 143.42 27.8076 151.64 27.8076C153.74 27.8076 155.82 28.2776 157.05 28.8376L156 33.5176C155.12 33.0976 153.77 32.6576 151.82 32.6576C147.33 32.6576 144.75 36.3076 144.77 40.9376C144.77 46.1076 147.78 49.1376 151.84 49.1376C153.68 49.1376 155.04 48.7476 156.16 48.2576L156.93 52.8676H156.92Z" fill="black"/>
<path fill-rule="evenodd" clip-rule="evenodd" d="M291.433 18.6632C301.232 17.8516 308.573 24.4362 309.306 34.0651C310.12 44.7679 305.282 53.5075 294.062 54.5377C294.041 54.5414 294.02 54.5457 293.999 54.5494C277.176 56.1214 271.319 36.5477 279.915 24.624C282.513 21.0195 287.094 19.1295 291.366 18.6715C291.388 18.6687 291.411 18.666 291.433 18.6632ZM296.875 26.2673C295.405 25.1747 293.562 24.7067 291.748 24.9655C284.693 26.0202 283.65 35.1867 284.79 40.7974C285.694 45.2498 288.864 48.8204 293.78 48.2524C302.714 46.9255 303.159 30.8934 296.875 26.2673Z" fill="#FFB600"/>
<path fill-rule="evenodd" clip-rule="evenodd" d="M222.274 19.0263C237.805 17.9509 249.877 23.0766 246.305 41.3288C245.396 45.9735 242.544 49.2561 238.492 51.6346C232.102 54.6648 223.235 54.7642 216.29 53.7807C216.187 52.6303 216.24 50.8281 216.241 49.6463L216.247 19.6347C218.248 19.3628 220.259 19.1598 222.274 19.0263ZM236.008 28.2209C233.743 25.5539 229.362 24.8045 226.052 25.0569C225.299 25.1354 224.812 25.2068 224.072 25.3626C223.893 28.6106 224.027 33.1099 224.025 36.4317C224.022 39.916 223.893 44.5336 224.072 47.9584C227.663 48.281 231.576 48.1719 234.532 45.8639C234.908 45.5379 235.924 44.7097 236.174 44.3573C239.315 39.9267 239.622 32.477 236.008 28.2209Z" fill="#FFB600"/>
<path d="M251.253 19.2985C256.099 19.2087 260.993 19.3429 265.844 19.2887C268.039 19.2643 270.316 19.2585 272.506 19.3221C272.528 21.4578 272.524 23.5935 272.493 25.7291C268.188 25.6248 263.32 25.6837 258.998 25.7291C258.853 27.8344 258.938 30.7576 258.954 32.9139C263.119 33.0079 267.491 32.9111 271.684 32.9397C271.813 34.4171 271.782 37.8044 271.686 39.2774C267.739 39.4512 263.025 39.2647 258.97 39.3178C258.917 40.2524 258.944 41.4259 258.941 42.3782C258.932 44.0801 258.938 45.782 258.96 47.4838C260.425 47.5996 262.851 47.5315 264.369 47.5317C267.327 47.5437 270.285 47.5363 273.243 47.5097C273.21 49.6265 273.245 51.8097 273.227 53.939L259.634 53.9405C256.866 53.9401 253.904 53.9906 251.149 53.9143C251.097 52.3269 251.15 50.3739 251.15 48.7627L251.151 26.0471C251.15 25.1526 251.065 19.5911 251.253 19.2985Z" fill="#FFB600"/>
<path d="M190.446 19.3167C191.426 19.2472 192.896 19.2857 193.901 19.2863C195.509 19.2872 197.26 19.2531 198.851 19.3473C198.141 21.3293 197.252 23.7473 196.674 25.7461C196.27 27.3347 195.17 30.1958 194.608 31.8118L191.216 41.7953L188.479 49.9599C188.093 51.132 187.642 52.8597 187.164 53.9316C186.757 53.9514 186.304 53.9449 185.895 53.9391C183.264 53.9019 180.595 54.0055 177.968 53.909C177.17 52.5932 176.066 48.0755 175.526 46.4305L169.822 28.6615C169.368 27.2439 166.937 20.3803 167.001 19.4806C167.171 19.2815 167.127 19.3416 167.456 19.2998C169.737 19.2902 173.383 19.1778 175.52 19.3447L179.512 33.4035C180.203 35.8455 180.996 38.3797 181.6 40.8442C182.016 42.5404 182.376 44.4766 182.73 46.1998C183.181 45.169 183.464 43.6969 183.744 42.5713L185.205 36.785C185.874 34.2402 186.846 31.6326 187.55 29.0995C188.445 25.8827 189.351 22.4635 190.446 19.3167Z" fill="#FFB600"/>
<path d="M323.105 18.6706C323.366 18.6253 324.568 18.6243 324.879 18.6188C328.017 18.5643 330.868 19.1265 333.728 20.4225C333.162 22.7438 332.578 24.3339 332.13 26.7891C329.489 25.8776 327.857 25.1001 324.883 25.1415C323.61 25.1263 321.468 25.4139 320.598 26.4698C317.076 30.7417 324.902 32.5976 327.362 33.7123C329.238 34.5625 330.869 35.4291 332.151 36.5773C336.166 40.1745 336.114 46.6581 332.438 50.4459C329.846 53.1551 325.771 54.1821 322.078 54.2546C318.906 54.2837 314.064 53.8618 311.333 52.2134C311.496 51.2869 312.522 46.431 312.809 45.9177C313.17 45.7784 315.863 46.9444 316.515 47.0963C319.643 47.8254 327.427 49.0449 326.942 43.721C326.897 43.2235 326.62 42.2756 326.239 41.9317C324.165 39.9919 321.148 39.3971 318.663 38.2676C315.522 36.751 312.064 34.2055 311.85 30.4154C311.687 27.543 311.819 25.5469 313.643 23.2665C316.004 20.3136 319.484 19.0302 323.105 18.6706Z" fill="#FFB600"/>
<path d="M202.6 19.295C205.105 19.2714 207.846 19.2469 210.34 19.3205L210.331 53.9434L202.593 53.9361L202.6 19.295Z" fill="#FFB600"/>
<path d="M207.541 11.04C209.73 10.9994 213.139 10.9515 215.214 11.0916C213.611 12.8651 211.329 14.9976 209.602 16.7473C209.429 16.9268 209.066 17.2162 208.861 17.389C206.935 17.4249 204.447 17.4393 202.543 17.3577C203.33 16.2989 204.076 15.1817 204.856 14.1235C205.524 13.2182 206.382 11.1026 207.541 11.04Z" fill="#FFB600"/>
<path d="M57.34 33.5082C57.34 34.7182 56.95 35.5982 56.78 35.9282C56.39 36.7082 55.82 37.3782 55.09 37.8782L40.36 47.3482C40.26 47.4082 40.14 47.3782 40.08 47.2782L39.6 46.4782C38.17 44.0982 38.86 40.9582 41.14 39.5082L49.54 34.1382C49.93 33.8882 49.92 33.2882 49.52 33.0482L36.08 25.1782C35.43 24.7982 34.62 25.2982 34.62 26.0882V47.4982C34.62 49.4882 33.53 51.3382 31.84 52.2082L21.59 57.4582C19.87 58.3382 17.84 58.0982 16.32 56.7882C15.15 55.7682 14.53 54.1982 14.53 52.5982V12.5382C14.53 11.9682 14.23 11.4482 13.75 11.1882L6.83 7.46818C6.41 7.23818 5.91 7.56818 5.91 8.06818V58.4982C5.91 59.1482 6.57 59.5382 7.09 59.2082L11.38 56.4582C11.94 56.0982 12.65 56.5182 12.67 57.2082L12.71 58.8282C12.78 61.3182 11.59 63.6582 9.59 64.9682L7.34 66.4382C6.68 66.8682 5.93 67.1282 5.15 67.1382C2.14 67.1982 0 64.7082 0 61.8882V5.38818C0 3.74818 0.64 2.15818 1.85 1.14818C3.39 -0.151821 5.43 -0.351821 7.14 0.568179L17.76 6.27818C19.42 7.16818 20.47 8.98818 20.47 10.9682V50.5382C20.47 50.7682 20.69 50.9182 20.89 50.8182L28.02 47.1682C28.43 46.9582 28.69 46.5182 28.69 46.0382V22.6982C28.69 20.7282 29.63 18.8482 31.26 17.9082C32.74 17.0482 34.5 17.0482 35.99 17.9282L54.8 28.9482C55.19 29.1782 56.01 29.7282 56.62 30.7882C57.24 31.8582 57.33 32.9182 57.33 33.5082H57.34Z" fill="#FFB600"/>
</svg>
